<svg height="512pt" viewBox="0 0 512 512" width="512pt" xmlns="http://www.w3.org/2000/svg"><path d="m496.320312 468.71875h-480.640624l16.769531-306.417969 223.550781-92.191406 223.550781 92.191406zm0 0" fill="#ff4f19"/><path d="m496.320312 468.71875h-240.320312v-398.609375l223.550781 92.191406zm0 0" fill="#e60020"/><g fill="#9afbff"><path d="m30.503906 27.007812h30v30h-30zm0 0"/><path d="m99.089844 78h30v30h-30zm0 0"/><path d="m167.484375 0h30v30h-30zm0 0"/></g><path d="m401.667969 27.007812h30v30h-30zm0 0" fill="#55fbff"/><path d="m457.808594 104.199219h30v30h-30zm0 0" fill="#55fbff"/><path d="m434.839844 251.722656c-24.695313 0-44.710938-20.019531-44.710938-44.710937v-44.707031h89.417969v44.707031c0 24.691406-20.015625 44.710937-44.707031 44.710937zm0 0" fill="#c8ad92"/><path d="m241 0h30v76.308594h-30zm0 0" fill="#ffa820"/><path d="m256 0h15v76.308594h-15zm0 0" fill="#ff8700"/><path d="m421.988281 449.421875v35.578125h-329.9375v-35.578125c25.121094 0 62.679688-24.390625 93.460938-60.691406 35.910156-42.371094 56.507812-93.441407 56.507812-140.128907h30c0 46.6875 20.601563 97.757813 56.511719 140.128907 30.777344 36.300781 68.339844 60.691406 93.457031 60.691406zm0 0" fill="#ffa820"/><path d="m421.988281 449.421875v35.578125h-165.988281v-236.398438h16.019531c0 46.6875 20.601563 97.757813 56.511719 140.128907 30.777344 36.300781 68.339844 60.691406 93.457031 60.691406zm0 0" fill="#ff8700"/><path d="m512 495.25v16.75h-512v-16.75c0-26.46875 21.53125-48 48-48h416c26.46875 0 48 21.53125 48 48zm0 0" fill="#cffcf9"/><path d="m211.289062 162.300781h-178.835937v44.710938c0 24.691406 20.015625 44.707031 44.707031 44.707031 24.695313 0 44.710938-20.015625 44.710938-44.707031 0 24.691406 20.015625 44.707031 44.707031 44.707031s44.703125-20.007812 44.710937-44.695312c.007813 24.683593 20.023438 44.695312 44.710938 44.695312s44.710938-20.019531 44.710938-44.710938v-44.707031zm0 0" fill="#dfcdbd"/><path d="m300.710938 162.300781h-44.710938v89.417969c24.6875 0 44.703125-20.011719 44.710938-44.695312.003906 24.6875 20.019531 44.699218 44.707031 44.699218 24.691406 0 44.710937-20.019531 44.710937-44.710937v-44.707031h-89.417968zm0 0" fill="#c8ad92"/><path d="m512 495.25v16.75h-256v-64.75h208c26.46875 0 48 21.53125 48 48zm0 0" fill="#9afbff"/><path d="m241 .132812v63.867188l77.917969-25.574219v-38.292969zm0 0" fill="#009100"/></svg>