<svg width="303" height="85" viewBox="0 0 303 85" fill="none" xmlns="http://www.w3.org/2000/svg">
<path d="M113.578 45.0547H100.078V59H93.0469V24.875H115.266V30.5703H100.078V39.3828H113.578V45.0547ZM148.335 42.7109C148.335 46.0703 147.741 49.0156 146.554 51.5469C145.366 54.0781 143.663 56.0312 141.444 57.4062C139.241 58.7812 136.71 59.4688 133.851 59.4688C131.022 59.4688 128.499 58.7891 126.28 57.4297C124.062 56.0703 122.343 54.1328 121.124 51.6172C119.905 49.0859 119.288 46.1797 119.272 42.8984V41.2109C119.272 37.8516 119.874 34.8984 121.077 32.3516C122.296 29.7891 124.007 27.8281 126.21 26.4688C128.429 25.0938 130.96 24.4062 133.804 24.4062C136.647 24.4062 139.171 25.0938 141.374 26.4688C143.593 27.8281 145.304 29.7891 146.507 32.3516C147.726 34.8984 148.335 37.8438 148.335 41.1875V42.7109ZM141.21 41.1641C141.21 37.5859 140.569 34.8672 139.288 33.0078C138.007 31.1484 136.179 30.2188 133.804 30.2188C131.444 30.2188 129.624 31.1406 128.343 32.9844C127.062 34.8125 126.413 37.5 126.397 41.0469V42.7109C126.397 46.1953 127.038 48.8984 128.319 50.8203C129.601 52.7422 131.444 53.7031 133.851 53.7031C136.21 53.7031 138.022 52.7812 139.288 50.9375C140.554 49.0781 141.194 46.375 141.21 42.8281V41.1641ZM167.037 46.5078H161.436V59H154.404V24.875H167.084C171.115 24.875 174.225 25.7734 176.412 27.5703C178.6 29.3672 179.693 31.9062 179.693 35.1875C179.693 37.5156 179.186 39.4609 178.17 41.0234C177.17 42.5703 175.647 43.8047 173.6 44.7266L180.982 58.6719V59H173.436L167.037 46.5078ZM161.436 40.8125H167.107C168.873 40.8125 170.24 40.3672 171.209 39.4766C172.178 38.5703 172.662 37.3281 172.662 35.75C172.662 34.1406 172.201 32.875 171.279 31.9531C170.373 31.0312 168.975 30.5703 167.084 30.5703H161.436V40.8125ZM203.716 50.0469C203.716 48.7188 203.247 47.7031 202.31 47C201.372 46.2812 199.685 45.5312 197.247 44.75C194.81 43.9531 192.88 43.1719 191.458 42.4062C187.583 40.3125 185.646 37.4922 185.646 33.9453C185.646 32.1016 186.161 30.4609 187.192 29.0234C188.239 27.5703 189.732 26.4375 191.669 25.625C193.622 24.8125 195.81 24.4062 198.232 24.4062C200.669 24.4062 202.841 24.8516 204.747 25.7422C206.653 26.6172 208.13 27.8594 209.177 29.4688C210.239 31.0781 210.771 32.9062 210.771 34.9531H203.739C203.739 33.3906 203.247 32.1797 202.263 31.3203C201.278 30.4453 199.896 30.0078 198.114 30.0078C196.396 30.0078 195.06 30.375 194.107 31.1094C193.153 31.8281 192.677 32.7812 192.677 33.9688C192.677 35.0781 193.232 36.0078 194.341 36.7578C195.466 37.5078 197.114 38.2109 199.286 38.8672C203.286 40.0703 206.2 41.5625 208.028 43.3438C209.857 45.125 210.771 47.3438 210.771 50C210.771 52.9531 209.653 55.2734 207.419 56.9609C205.185 58.6328 202.177 59.4688 198.396 59.4688C195.771 59.4688 193.38 58.9922 191.224 58.0391C189.067 57.0703 187.419 55.75 186.278 54.0781C185.153 52.4062 184.591 50.4688 184.591 48.2656H191.646C191.646 52.0312 193.896 53.9141 198.396 53.9141C200.067 53.9141 201.372 53.5781 202.31 52.9062C203.247 52.2188 203.716 51.2656 203.716 50.0469ZM242.199 30.5703H231.746V59H224.715V30.5703H214.402V24.875H242.199V30.5703ZM267.722 44.2109H254.222V53.3516H270.066V59H247.191V24.875H270.019V30.5703H254.222V38.7031H267.722V44.2109ZM285.838 45.3125L282.182 49.25V59H275.151V24.875H282.182V40.3438L285.276 36.1016L293.971 24.875H302.619L290.502 40.0391L302.971 59H294.604L285.838 45.3125Z" fill="#717070"/>
<path d="M10.166 57.118V55.187V48.994L26.166 40.397V28.041L10.166 36.638V27.639L36.166 12.9V0.539001L0.166016 21.459V63.299L10.166 69.11V57.118Z" fill="#FC6F20"/>
<path d="M41.166 3.586V15.861L62.166 27.64V57.118L36.166 71.858L15.166 59.953V72.016L36.166 84.219L72.166 63.299V21.459L41.166 3.586Z" fill="#FC6F20"/>
</svg>
