<?xml version="1.0" encoding="utf-8"?>
<!-- Generator: Adobe Illustrator 16.0.0, SVG Export Plug-In . SVG Version: 6.00 Build 0)  -->
<!DOCTYPE svg PUBLIC "-//W3C//DTD SVG 1.1//EN" "http://www.w3.org/Graphics/SVG/1.1/DTD/svg11.dtd">
<svg version="1.1" id="Layer_1" xmlns="http://www.w3.org/2000/svg" xmlns:xlink="http://www.w3.org/1999/xlink" x="0px" y="0px"
	 width="346px" height="107px" viewBox="0 0 346 107" enable-background="new 0 0 346 107" xml:space="preserve">
<g>
	<g>
		<polygon fill="#323232" points="141.65,36.66 123.079,36.66 123.079,51.593 140.195,51.593 140.195,58.558 123.079,58.558 
			123.079,79.349 114.832,79.349 114.832,29.661 141.65,29.661 		"/>
		<path fill="#323232" d="M163.613,80.181c-5.474,0-9.848-1.658-13.115-4.973c-3.27-3.314-4.902-7.71-4.902-13.186
			c0-5.959,1.704-10.613,5.11-13.963c3.407-3.35,7.998-5.025,13.773-5.025c5.544,0,9.864,1.629,12.959,4.887
			c3.095,3.257,4.644,7.773,4.644,13.548c0,5.66-1.67,10.192-5.008,13.601C173.736,78.477,169.249,80.181,163.613,80.181
			 M163.994,49.446c-3.143,0-5.625,1.097-7.449,3.292c-1.825,2.194-2.738,5.221-2.738,9.078c0,3.719,0.924,6.646,2.772,8.783
			s4.319,3.205,7.415,3.205c3.164,0,5.596-1.051,7.294-3.152s2.547-5.094,2.547-8.975c0-3.904-0.849-6.918-2.547-9.043
			C169.589,50.507,167.158,49.446,163.994,49.446"/>
		<path fill="#323232" d="M209.138,51.525c-0.971-0.763-2.369-1.144-4.192-1.144c-2.379,0-4.367,1.074-5.96,3.222
			c-1.595,2.148-2.392,5.071-2.392,8.768v16.979h-8.039V43.867h8.039v7.312h0.14c0.784-2.495,1.991-4.44,3.619-5.839
			c1.63-1.397,3.448-2.096,5.458-2.096c1.455,0,2.564,0.22,3.327,0.658V51.525z"/>
		<path fill="#323232" d="M211.35,78.24v-7.449c3.003,2.287,6.317,3.43,9.944,3.43c4.852,0,7.278-1.432,7.278-4.297
			c0-0.808-0.209-1.496-0.625-2.061c-0.415-0.566-0.977-1.068-1.681-1.508c-0.705-0.439-1.537-0.832-2.495-1.179
			c-0.959-0.346-2.025-0.739-3.205-1.178c-1.455-0.577-2.767-1.189-3.933-1.837c-1.167-0.646-2.137-1.379-2.911-2.199
			c-0.773-0.82-1.356-1.75-1.749-2.79c-0.394-1.039-0.59-2.252-0.59-3.638c0-1.709,0.404-3.217,1.213-4.521
			c0.81-1.306,1.896-2.403,3.258-3.293c1.362-0.889,2.91-1.559,4.643-2.01c1.732-0.449,3.522-0.676,5.372-0.676
			c3.278,0,6.212,0.498,8.8,1.49v7.035c-2.495-1.71-5.359-2.564-8.593-2.564c-1.017,0-1.936,0.104-2.754,0.312
			c-0.821,0.208-1.521,0.497-2.098,0.866s-1.027,0.814-1.352,1.334c-0.323,0.52-0.485,1.092-0.485,1.715
			c0,0.763,0.162,1.41,0.485,1.94c0.324,0.532,0.803,0.999,1.438,1.403s1.397,0.774,2.287,1.109c0.89,0.336,1.91,0.699,3.066,1.092
			c1.524,0.623,2.893,1.259,4.105,1.905c1.213,0.647,2.246,1.38,3.102,2.2c0.854,0.82,1.513,1.768,1.975,2.842
			c0.462,1.073,0.693,2.35,0.693,3.828c0,1.801-0.416,3.373-1.248,4.713c-0.831,1.34-1.939,2.448-3.326,3.326
			c-1.386,0.878-2.985,1.53-4.799,1.958c-1.813,0.427-3.725,0.642-5.734,0.642C217.552,80.181,214.191,79.533,211.35,78.24"/>
		<path fill="#323232" d="M261.171,78.967c-1.57,0.785-3.639,1.179-6.202,1.179c-6.884,0-10.325-3.304-10.325-9.91V50.173h-5.926
			v-6.307h5.926v-8.212l8.039-2.286v10.498h8.488v6.307h-8.488v17.74c0,2.103,0.382,3.604,1.143,4.506
			c0.762,0.901,2.033,1.351,3.812,1.351c1.362,0,2.54-0.393,3.534-1.179V78.967z"/>
		<path fill="#323232" d="M296.026,63.791h-24.188c0.092,3.281,1.104,5.811,3.032,7.589c1.928,1.778,4.58,2.668,7.952,2.668
			c3.789,0,7.265-1.132,10.43-3.396v6.479c-3.234,2.032-7.508,3.05-12.821,3.05c-5.221,0-9.313-1.612-12.283-4.834
			c-2.969-3.223-4.451-7.756-4.451-13.602c0-5.52,1.633-10.019,4.902-13.496c3.269-3.476,7.328-5.215,12.18-5.215
			c4.85,0,8.604,1.561,11.261,4.678c2.657,3.119,3.986,7.45,3.986,12.994V63.791z M288.263,58.108
			c-0.022-2.888-0.705-5.134-2.045-6.739s-3.187-2.408-5.544-2.408c-2.31,0-4.268,0.844-5.873,2.529
			c-1.605,1.687-2.594,3.893-2.963,6.618H288.263z"/>
		<polygon fill="#323232" points="334.168,79.349 323.982,79.349 310.191,62.3 310.052,62.3 310.052,79.349 301.98,79.349 
			301.98,26.819 310.052,26.819 310.052,60.118 310.191,60.118 323.219,43.867 332.886,43.867 318.231,60.984 		"/>
	</g>
	<g>
		<g>
			<path fill="#FF7101" stroke="#FF7101" stroke-linecap="round" stroke-linejoin="round" stroke-miterlimit="10" d="M47.832,11.978
				"/>
			<polygon fill="#FF7101" stroke="#FF7101" stroke-linecap="round" stroke-linejoin="round" stroke-miterlimit="10" points="
				26.832,82.819 26.832,70.756 47.832,82.661 73.832,67.921 73.832,38.443 52.832,26.664 52.832,14.865 47.832,11.978 
				47.832,24.339 21.832,39.078 21.832,48.077 37.832,39.48 37.832,51.836 21.832,60.433 21.832,66.626 21.832,68.557 
				21.832,80.106 			"/>
		</g>
		<polygon fill="none" stroke="#FF7101" stroke-linecap="round" stroke-linejoin="round" stroke-miterlimit="10" points="
			21.832,68.557 21.832,66.626 21.832,60.433 37.832,51.836 37.832,39.48 21.832,48.077 21.832,39.078 47.832,24.339 47.832,11.978 
			11.832,32.898 11.832,74.333 21.832,80.106 		"/>
		<polygon fill="none" stroke="#FF7101" stroke-linecap="round" stroke-linejoin="round" stroke-miterlimit="10" points="
			52.832,26.664 73.832,38.443 73.832,67.921 47.832,82.661 26.832,70.756 26.832,82.819 47.832,95.021 83.831,74.102 
			83.832,32.668 52.832,14.77 		"/>
	</g>
</g>
</svg>
