<svg width="542" height="172" viewBox="0 0 542 172" fill="none" xmlns="http://www.w3.org/2000/svg">
<circle cx="86" cy="86" r="86" fill="#E65200" fill-opacity="0.79"/>
<g clip-path="url(#clip0)">
<path d="M48.9713 107.669V104.901V96.0247L71.9046 83.7023V65.992L48.9713 78.3144V65.4158L86.2379 44.2899V26.5725L34.6379 56.5578V116.529L48.9713 124.858V107.669Z" fill="white"/>
<path d="M93.4046 30.9401V48.5342L123.505 65.4175V107.669L86.2379 128.797L56.1379 111.733V129.023L86.2379 146.514L137.838 116.529V56.558L93.4046 30.9401Z" fill="white"/>
</g>
<path d="M225.367 94.082H205.117V115H194.57V63.8125H227.898V72.3555H205.117V85.5742H225.367V94.082ZM277.502 90.5664C277.502 95.6055 276.612 100.023 274.831 103.82C273.049 107.617 270.495 110.547 267.167 112.609C263.862 114.672 260.065 115.703 255.776 115.703C251.534 115.703 247.749 114.684 244.42 112.645C241.092 110.605 238.514 107.699 236.686 103.926C234.858 100.129 233.932 95.7695 233.909 90.8477V88.3164C233.909 83.2773 234.811 78.8477 236.616 75.0273C238.444 71.1836 241.01 68.2422 244.315 66.2031C247.643 64.1406 251.44 63.1094 255.706 63.1094C259.971 63.1094 263.756 64.1406 267.061 66.2031C270.389 68.2422 272.956 71.1836 274.76 75.0273C276.588 78.8477 277.502 83.2656 277.502 88.2812V90.5664ZM266.815 88.2461C266.815 82.8789 265.854 78.8008 263.932 76.0117C262.01 73.2227 259.268 71.8281 255.706 71.8281C252.167 71.8281 249.436 73.2109 247.514 75.9766C245.592 78.7188 244.62 82.75 244.596 88.0703V90.5664C244.596 95.793 245.557 99.8477 247.479 102.73C249.401 105.613 252.167 107.055 255.776 107.055C259.315 107.055 262.034 105.672 263.932 102.906C265.831 100.117 266.792 96.0625 266.815 90.7422V88.2461ZM305.556 96.2617H297.153V115H286.607V63.8125H305.626C311.673 63.8125 316.337 65.1602 319.618 67.8555C322.9 70.5508 324.54 74.3594 324.54 79.2812C324.54 82.7734 323.778 85.6914 322.255 88.0352C320.755 90.3555 318.47 92.207 315.4 93.5898L326.474 114.508V115H315.153L305.556 96.2617ZM297.153 87.7188H305.661C308.31 87.7188 310.36 87.0508 311.814 85.7148C313.267 84.3555 313.993 82.4922 313.993 80.125C313.993 77.7109 313.302 75.8125 311.919 74.4297C310.56 73.0469 308.462 72.3555 305.626 72.3555H297.153V87.7188ZM360.574 101.57C360.574 99.5781 359.871 98.0547 358.465 97C357.058 95.9219 354.527 94.7969 350.871 93.625C347.215 92.4297 344.32 91.2578 342.187 90.1094C336.375 86.9688 333.468 82.7383 333.468 77.418C333.468 74.6523 334.242 72.1914 335.789 70.0352C337.359 67.8555 339.597 66.1562 342.504 64.9375C345.433 63.7188 348.715 63.1094 352.347 63.1094C356.004 63.1094 359.261 63.7773 362.121 65.1133C364.98 66.4258 367.195 68.2891 368.765 70.7031C370.359 73.1172 371.156 75.8594 371.156 78.9297H360.609C360.609 76.5859 359.871 74.7695 358.394 73.4805C356.918 72.168 354.843 71.5117 352.172 71.5117C349.593 71.5117 347.59 72.0625 346.16 73.1641C344.73 74.2422 344.015 75.6719 344.015 77.4531C344.015 79.1172 344.847 80.5117 346.511 81.6367C348.199 82.7617 350.672 83.8164 353.929 84.8008C359.929 86.6055 364.3 88.8438 367.043 91.5156C369.785 94.1875 371.156 97.5156 371.156 101.5C371.156 105.93 369.48 109.41 366.129 111.941C362.777 114.449 358.265 115.703 352.593 115.703C348.656 115.703 345.07 114.988 341.836 113.559C338.601 112.105 336.129 110.125 334.418 107.617C332.73 105.109 331.886 102.203 331.886 98.8984H342.468C342.468 104.547 345.843 107.371 352.593 107.371C355.101 107.371 357.058 106.867 358.465 105.859C359.871 104.828 360.574 103.398 360.574 101.57ZM418.299 72.3555H402.619V115H392.072V72.3555H376.604V63.8125H418.299V72.3555ZM456.583 92.8164H436.333V106.527H460.098V115H425.786V63.8125H460.028V72.3555H436.333V84.5547H456.583V92.8164ZM483.757 94.4688L478.273 100.375V115H467.726V63.8125H478.273V87.0156L482.913 80.6523L495.956 63.8125H508.929L490.753 86.5586L509.456 115H496.906L483.757 94.4688Z" fill="#717070"/>
<defs>
<clipPath id="clip0">
<rect width="104.633" height="121.833" fill="white" transform="translate(34.4 25.8)"/>
</clipPath>
</defs>
</svg>
